;base note index set.
.ENUM
	_E_1 ;non-standard note
	_Gb1 ;non-standard note
	_A_1 ;non-standard note
	_Db2 ;non-standard note
	_E_2 ;non-standard note
	_A_2 ;non-standard note
	_D_3 ;non-standard note
	_Bb3 ;non-standard note
	_C_5 ;non-standard note
	A_0
	Bb0
	B_0
	C_1
	Db1
	D_1
	Eb1
	E_1
	F_1
	Gb1
	G_1
	Ab1
	A_1
	Bb1
	B_1
	C_2
	Db2
	D_2
	Eb2
	E_2
	F_2
	Gb2
	G_2
	Ab2
	A_2
	Bb2
	B_2
	C_3
	Db3
	D_3
	Eb3
	E_3
	F_3
	Gb3
	G_3
	Ab3
	A_3
	Bb3
	B_3
	C_4
	Db4
	D_4
	Eb4
	E_4
	F_4
	Gb4
	G_4
	Ab4
	A_4
	Bb4
	B_4
	C_5
	Db5
	D_5
	Eb5
	E_5
	F_5
	Gb5
	G_5
	Ab5
	A_5
	Bb5
	B_5
	C_6
	Db6
	D_6
	Eb6
	E_6
	F_6
	Gb6
	G_6
	Ab6
	A_6
	Bb6
	B_6
	C_7
	Db7
	D_7
	Eb7
	E_7
	F_7
	Gb7
	G_7
	Ab7
	A_7
	Bb7
	B_7
.ENDENUM

;channel flags.
	no_channel_flags_set     = 0
	channel_octave_jump_set  = 1 << 3
	channel_triplet_note_set = 1 << 5
	channel_connect_note_set = 1 << 6
